<?xml version="1.0" standalone="no"?>
<!DOCTYPE svg PUBLIC "-//W3C//DTD SVG 20010904//EN"
 "http://www.w3.org/TR/2001/REC-SVG-20010904/DTD/svg10.dtd">
<svg version="1.0" xmlns="http://www.w3.org/2000/svg"
 width="1024.000000pt" height="1024.000000pt" viewBox="0 0 1024.000000 1024.000000"
 preserveAspectRatio="xMidYMid meet">
<metadata>
Created by potrace 1.16, written by Peter Selinger 2001-2019
</metadata>
<g transform="translate(0.000000,1024.000000) scale(0.100000,-0.100000)"
fill="#000000" stroke="none">
<path d="M3855 9184 c-16 -2 -79 -9 -140 -15 -60 -6 -114 -14 -120 -19 -5 -4
-50 -15 -100 -25 -49 -9 -92 -20 -95 -24 -3 -3 -36 -14 -75 -24 -38 -9 -92
-28 -120 -42 -27 -13 -56 -25 -63 -25 -7 0 -30 -9 -50 -19 -20 -11 -77 -39
-125 -63 -136 -67 -181 -91 -214 -115 -17 -13 -35 -23 -39 -23 -4 0 -37 -22
-73 -48 -36 -26 -74 -51 -83 -55 -10 -3 -18 -11 -18 -17 0 -5 -6 -10 -12 -10
-13 -1 -145 -100 -184 -139 -12 -12 -25 -21 -29 -21 -9 0 -127 -104 -241 -212
-45 -43 -83 -78 -86 -78 -14 0 -380 -384 -516 -540 -50 -58 -100 -115 -111
-128 -12 -12 -21 -25 -21 -27 0 -3 -27 -37 -60 -76 -45 -54 -61 -81 -66 -114
-6 -46 12 -129 47 -201 10 -22 19 -47 19 -55 0 -8 8 -30 18 -49 10 -19 24 -55
32 -80 8 -25 22 -58 32 -75 10 -16 18 -36 18 -44 0 -8 22 -60 49 -115 27 -56
55 -118 62 -138 7 -21 16 -38 19 -38 3 0 14 -22 25 -50 11 -27 23 -50 26 -50
4 0 19 -24 34 -52 49 -99 67 -133 80 -148 7 -8 23 -33 35 -55 12 -22 43 -69
69 -104 25 -35 54 -78 65 -95 10 -17 40 -59 67 -93 27 -35 49 -67 49 -73 0 -5
9 -15 20 -22 11 -7 20 -17 20 -22 0 -5 41 -55 90 -112 50 -57 90 -106 90 -109
0 -3 36 -41 80 -84 44 -44 80 -83 80 -88 0 -10 122 -133 133 -133 4 0 40 -33
79 -72 40 -40 80 -77 89 -83 10 -5 58 -45 107 -87 50 -43 94 -78 99 -78 4 0
14 -9 21 -20 7 -11 18 -20 26 -20 7 0 19 -6 25 -14 16 -19 169 -136 178 -136
3 0 39 -25 79 -55 40 -30 76 -55 80 -55 4 0 42 -27 85 -60 42 -33 81 -60 86
-60 4 0 14 -9 21 -20 7 -11 17 -20 23 -20 6 0 53 -35 106 -77 52 -43 102 -82
111 -88 30 -18 193 -165 385 -349 l187 -179 40 6 c91 12 349 258 438 417 51
90 109 211 116 240 1 3 7 14 13 25 5 11 14 38 18 60 3 22 13 54 20 70 16 35
45 172 45 213 0 15 4 32 9 37 11 11 41 225 41 286 0 21 5 41 10 44 6 3 10 30
10 59 0 95 19 146 37 99 4 -10 22 -32 40 -51 18 -18 33 -36 33 -41 0 -11 170
-175 205 -197 16 -10 58 -40 93 -66 35 -27 69 -48 77 -48 8 0 18 -6 22 -12 9
-15 97 -59 168 -84 28 -9 55 -21 61 -26 6 -5 36 -15 65 -24 30 -8 73 -24 96
-35 24 -10 46 -19 51 -19 12 0 130 -61 179 -93 24 -15 46 -27 49 -27 4 0 14
-7 23 -15 9 -8 54 -48 101 -90 79 -68 176 -175 204 -223 6 -10 24 -39 40 -63
34 -51 86 -153 86 -168 0 -6 4 -11 8 -11 4 0 16 -28 26 -62 10 -35 22 -68 26
-73 11 -13 40 -210 40 -268 0 -25 5 -49 11 -52 6 -4 10 -37 9 -78 -1 -40 0
-79 3 -87 3 -8 13 -150 22 -315 10 -165 21 -304 25 -310 4 -5 10 -57 14 -115
11 -184 27 -344 35 -365 5 -11 17 -74 26 -140 10 -66 22 -127 26 -135 4 -8 15
-49 24 -90 9 -41 23 -88 31 -105 7 -16 21 -52 30 -80 9 -27 19 -52 23 -55 3
-3 24 -41 46 -85 22 -44 61 -105 88 -137 26 -31 47 -61 47 -65 1 -18 223 -203
245 -203 5 0 30 -14 54 -30 24 -17 52 -30 63 -30 10 0 18 -4 18 -9 0 -4 28
-16 63 -26 34 -9 67 -21 72 -25 51 -40 533 -42 589 -2 6 4 38 16 71 27 33 10
76 28 95 40 19 11 46 26 60 33 14 7 47 30 74 50 27 20 56 42 64 47 24 16 68
64 135 147 67 81 125 188 152 278 9 30 21 64 26 75 15 33 29 163 23 205 -8 51
-74 114 -167 159 -55 27 -75 32 -104 26 -35 -6 -93 -55 -93 -78 0 -39 -146
-201 -225 -249 -89 -55 -247 -63 -342 -17 -47 23 -123 85 -123 101 0 5 -11 25
-24 46 -13 20 -30 64 -37 97 -7 33 -16 65 -21 71 -4 6 -13 92 -19 190 -12 190
3 769 21 809 5 11 16 157 25 325 9 168 21 314 25 325 9 21 40 600 40 746 0 47
3 88 6 92 3 3 5 74 5 157 -1 104 2 156 10 166 18 22 19 1705 1 1727 -8 9 -13
31 -11 49 1 18 -1 40 -4 48 -2 8 -13 62 -22 119 -9 58 -21 112 -25 120 -5 9
-16 47 -25 86 -9 38 -20 74 -25 80 -4 5 -13 30 -20 55 -14 51 -42 117 -104
240 -71 140 -88 170 -97 170 -5 0 -9 6 -9 13 0 7 -12 30 -27 52 -15 22 -35 52
-43 67 -8 14 -44 61 -80 104 -36 42 -69 83 -75 92 -33 48 -348 335 -385 350
-8 3 -44 26 -79 51 -77 55 -80 57 -263 149 -79 39 -151 72 -159 72 -8 0 -24 6
-35 14 -11 8 -48 22 -83 31 -35 9 -70 20 -79 25 -22 12 -133 37 -202 45 -30 4
-60 11 -65 15 -22 18 -271 31 -510 28 l-250 -3 -55 31 c-30 17 -76 45 -101 63
-26 17 -52 31 -58 31 -6 0 -11 5 -11 10 0 6 -5 10 -11 10 -6 0 -30 12 -53 28
-37 25 -109 61 -221 112 -22 11 -62 26 -90 35 -27 9 -63 22 -80 29 -16 8 -61
19 -100 26 -38 7 -72 16 -75 20 -14 21 -501 49 -605 34z"/>
</g>
</svg>
